# xmcd
#
# Track frame offsets:
#	150
#	9452
#	31708
#	49815
#	71955
#	85436
#	95704
#	123252
#	130273
#	137861
#	179083
#	184440
#	193037
#	203435
#	219883
#	237130
#
# Disc length: 3454 seconds
#
# Revision: 1
# Processed by: cddbd v1.5.2PL0 Copyright (c) Steve Scherf et al.
# Submitted via: audiograbber 1.83.01
#
DISCID=ea0d7c10
DTITLE=James Brown - Live at Chastain Park
DYEAR=1985
DGENRE=R&B
TTITLE0=Give It Up or Turn It Loose
TTITLE1=It's Too Funky in Here
TTITLE2=Doing It To Death
TTITLE3=Try Me
TTITLE4=Get on the Good Foot
TTITLE5=Get Up Offa That Thing
TTITLE6=Georgia On My Mind
TTITLE7=Hot Pants
TTITLE8=I Got The Feelin'
TTITLE9=It's a Man's, Man's, Man's World
TTITLE10=Cold Sweat
TTITLE11=I Can't Stand Myself (When You Touch Me)
TTITLE12=Papa's Got a Brand New Bag
TTITLE13=I Got You (I Feel Good)
TTITLE14=Please, Please, Please
TTITLE15=Jam
EXTD=
EXTT0=
EXTT1=
EXTT2=
EXTT3=
EXTT4=
EXTT5=
EXTT6=
EXTT7=
EXTT8=
EXTT9=
EXTT10=
EXTT11=
EXTT12=
EXTT13=
EXTT14=
EXTT15=
PLAYORDER=
